<?xml version="1.0" encoding="utf-8"?>
<!-- Generator: Adobe Illustrator 28.0.0, SVG Export Plug-In . SVG Version: 6.00 Build 0)  -->
<svg version="1.1" id="Capa_1" xmlns="http://www.w3.org/2000/svg" xmlns:xlink="http://www.w3.org/1999/xlink" x="0px" y="0px"
	 viewBox="0 0 1125 682" style="enable-background:new 0 0 1125 682;" xml:space="preserve">
<style type="text/css">
	.st0{fill:#808080;}
	.st1{fill:#FFFFFF;filter:url(#Adobe_OpacityMaskFilter);}
	.st2{mask:url(#custom_00000070110547602450957360000011110212846361459861_);}
</style>
<g>
	<g>
		<path class="st0" d="M471,542.6v6.5h-0.5c0-0.5-0.1-0.9-0.4-1.2c-0.3-0.3-0.6-0.5-1.1-0.6s-1-0.2-1.6-0.2c-0.6,0-1.3,0-2.1,0h-7.4
			v7.2h4.6c0.8,0,1.5,0,2.1,0s1.2-0.1,1.6-0.2c0.5-0.1,0.8-0.3,1.1-0.6c0.3-0.3,0.4-0.7,0.4-1.2h0.5v8.5h-0.5c0-0.5-0.1-0.9-0.4-1.2
			c-0.3-0.3-0.6-0.5-1.1-0.6c-0.5-0.1-1-0.2-1.6-0.2s-1.3,0-2.1,0h-4.6v7.2h7.4c0.8,0,1.5,0,2.2,0c0.7,0,1.3-0.1,1.8-0.2
			c0.5-0.1,0.9-0.3,1.2-0.6c0.3-0.3,0.5-0.7,0.5-1.2h0.6l-0.6,6.5h-20v-0.5c0.5,0,0.9-0.1,1.2-0.4c0.3-0.3,0.5-0.6,0.6-1.1
			c0.1-0.5,0.2-1,0.2-1.6c0-0.6,0-1.3,0-2.1v-16.2c0-0.8,0-1.5,0-2.1c0-0.6-0.1-1.2-0.2-1.6c-0.1-0.5-0.3-0.8-0.6-1.1
			c-0.3-0.2-0.7-0.4-1.2-0.4v-0.5H471z"/>
		<path class="st0" d="M494.6,551.8h-0.5c0-0.5-0.3-1-0.7-1.7c-0.4-0.7-1-1.3-1.8-1.9c-0.7-0.6-1.6-1.1-2.6-1.5
			c-1-0.4-2.1-0.6-3.4-0.6c-0.6,0-1.2,0.1-1.7,0.2c-0.6,0.1-1.1,0.3-1.5,0.6c-0.4,0.3-0.8,0.6-1,1.1s-0.4,1-0.4,1.7
			c0,0.8,0.4,1.5,1.1,2c0.8,0.5,1.7,1.1,2.8,1.5c1.1,0.5,2.4,1,3.7,1.5c1.3,0.5,2.6,1.2,3.7,1.9c1.1,0.8,2.1,1.7,2.8,2.8
			c0.8,1.1,1.1,2.4,1.1,4.1c0,1.3-0.3,2.5-0.9,3.5c-0.6,1-1.4,1.8-2.3,2.5c-0.9,0.7-2,1.1-3.2,1.5c-1.2,0.3-2.4,0.5-3.6,0.5
			c-1,0-2.1-0.1-3.1-0.3c-1-0.2-2-0.5-2.9-0.9c-0.9-0.4-1.8-0.9-2.6-1.5c-0.8-0.6-1.5-1.3-2.2-2.2h0l1.6-5.6h0.5
			c0.2,0.9,0.6,1.7,1.3,2.4c0.6,0.7,1.4,1.3,2.2,1.8c0.8,0.5,1.7,0.9,2.7,1.1c0.9,0.3,1.8,0.4,2.7,0.4c0.5,0,1.1-0.1,1.7-0.2
			c0.6-0.1,1.2-0.3,1.7-0.6c0.5-0.3,1-0.6,1.3-1c0.3-0.4,0.5-1,0.5-1.6c0-0.9-0.4-1.6-1.1-2.2c-0.8-0.6-1.7-1.2-2.8-1.7
			c-1.1-0.5-2.4-1.1-3.7-1.6c-1.3-0.5-2.6-1.2-3.7-1.9c-1.1-0.7-2.1-1.6-2.8-2.6c-0.8-1-1.1-2.3-1.1-3.8c0-1.3,0.3-2.5,0.8-3.5
			c0.5-1,1.2-1.9,2.1-2.5c0.9-0.7,1.9-1.2,3-1.5c1.1-0.3,2.3-0.5,3.6-0.5c1.8,0,3.6,0.4,5.3,1.1c1.7,0.7,3.2,1.7,4.5,3L494.6,551.8z
			"/>
		<path class="st0" d="M513.1,542c1.5,0,3,0.2,4.4,0.7c1.4,0.5,2.7,1.2,3.9,2.1l-0.8,6.6H520c0-0.8-0.2-1.4-0.7-2
			c-0.4-0.6-1-1.1-1.7-1.5c-0.7-0.4-1.4-0.7-2.2-0.9c-0.8-0.2-1.5-0.3-2.1-0.4h-0.1c-1.6,0-3,0.2-4.1,0.8c-1.2,0.6-2.2,1.3-2.9,2.2
			c-0.8,0.9-1.4,2-1.8,3.1c-0.4,1.2-0.6,2.4-0.6,3.6s0.2,2.4,0.6,3.6c0.4,1.2,1,2.2,1.7,3.1c0.8,0.9,1.8,1.6,2.9,2.2
			c1.2,0.6,2.5,0.9,4.1,0.9c0.7,0,1.4-0.1,2.1-0.3c0.7-0.2,1.4-0.5,2-0.9c0.6-0.4,1.2-0.9,1.7-1.4c0.5-0.6,0.8-1.2,1-1.9h0.6
			l0.8,6.4v0h0c-0.7,0.6-1.4,1.1-2.1,1.4c-0.7,0.4-1.4,0.7-2.1,0.9c-0.7,0.2-1.4,0.3-2.2,0.4c-0.8,0.1-1.6,0.1-2.5,0.1
			c-2.3-0.1-4.3-0.6-6-1.4s-3.2-2-4.3-3.3c-1.1-1.4-2-2.9-2.6-4.6c-0.6-1.7-0.8-3.5-0.8-5.3c0-1.8,0.3-3.5,0.9-5.2
			c0.6-1.7,1.5-3.2,2.7-4.6c1.2-1.3,2.7-2.4,4.5-3.2C508.7,542.5,510.8,542,513.1,542z"/>
		<path class="st0" d="M545,542.6v6.5h-0.5c0-0.5-0.1-0.9-0.4-1.2c-0.3-0.3-0.6-0.5-1.1-0.6s-1-0.2-1.6-0.2c-0.6,0-1.3,0-2.1,0h-7.4
			v7.2h4.6c0.8,0,1.5,0,2.1,0s1.2-0.1,1.6-0.2c0.5-0.1,0.8-0.3,1.1-0.6c0.3-0.3,0.4-0.7,0.4-1.2h0.5v8.5h-0.5c0-0.5-0.1-0.9-0.4-1.2
			c-0.3-0.3-0.6-0.5-1.1-0.6c-0.5-0.1-1-0.2-1.6-0.2s-1.3,0-2.1,0h-4.6v7.2h7.4c0.8,0,1.5,0,2.2,0c0.7,0,1.3-0.1,1.8-0.2
			c0.5-0.1,0.9-0.3,1.2-0.6c0.3-0.3,0.5-0.7,0.5-1.2h0.6l-0.6,6.5h-20v-0.5c0.5,0,0.9-0.1,1.2-0.4c0.3-0.3,0.5-0.6,0.6-1.1
			c0.1-0.5,0.2-1,0.2-1.6c0-0.6,0-1.3,0-2.1v-16.2c0-0.8,0-1.5,0-2.1c0-0.6-0.1-1.2-0.2-1.6c-0.1-0.5-0.3-0.8-0.6-1.1
			c-0.3-0.2-0.7-0.4-1.2-0.4v-0.5H545z"/>
		<path class="st0" d="M553,542.6l15,18.6v-13.7c0-1.3-0.1-2.4-0.3-3.2c-0.2-0.8-0.8-1.2-1.7-1.2v-0.5h8.9v0.5
			c-0.5,0-0.9,0.1-1.2,0.4c-0.3,0.3-0.5,0.6-0.6,1.1c-0.1,0.5-0.2,1-0.2,1.6c0,0.6,0,1.3,0,2.1v16.2c0,0.8,0,1.5,0,2.1
			c0,0.6,0.1,1.2,0.2,1.6c0.1,0.5,0.3,0.8,0.6,1.1c0.3,0.3,0.7,0.4,1.2,0.4v0.5h-5.4l-14.5-17.8v12.1c0,0.8,0,1.5,0,2.1
			c0,0.6,0.1,1.2,0.2,1.6c0.1,0.5,0.3,0.8,0.6,1.1c0.3,0.3,0.7,0.4,1.2,0.4v0.5h-8.9v-0.5c0.5,0,0.9-0.1,1.2-0.4
			c0.3-0.3,0.5-0.6,0.6-1.1c0.1-0.5,0.2-1,0.2-1.6c0-0.6,0-1.3,0-2.1v-16.2c0-0.8,0-1.5,0-2.1c0-0.6-0.1-1.2-0.2-1.6
			c-0.1-0.5-0.3-0.8-0.6-1.1c-0.3-0.2-0.7-0.4-1.2-0.4v-0.5H553z"/>
		<path class="st0" d="M591.4,542.6L591.4,542.6h3.7v0.5c-0.7,0-1.1,0.5-1.3,1.4c-0.2,0.9,0,2.2,0.7,3.7l9,19.3
			c0.4,0.7,0.7,1.3,1.1,1.7c0.4,0.4,0.9,0.6,1.6,0.6v0.5h-8.9v-0.5c0.5,0,0.8-0.1,1-0.4s0.3-0.6,0.2-1c0-0.4-0.1-0.9-0.3-1.5
			s-0.4-1.2-0.7-1.8h-12.9c-0.3,0.7-0.5,1.3-0.7,1.8c-0.2,0.6-0.3,1.1-0.3,1.5c0,0.4,0.1,0.8,0.2,1s0.5,0.4,1,0.4v0.5h-8.9v-0.5
			c0.6,0,1.1-0.2,1.5-0.6c0.4-0.4,0.8-0.9,1.1-1.6l9-19.4c0.7-1.5,1-2.8,0.8-3.7c-0.2-0.9-0.6-1.4-1.3-1.4v-0.5H591.4z M586.5,560.7
			h8.9l-4.4-9.6L586.5,560.7z"/>
		<path class="st0" d="M607.1,570.3v-0.5c0.5,0,0.9-0.1,1.2-0.4c0.3-0.3,0.5-0.6,0.6-1.1c0.1-0.5,0.2-1,0.2-1.6c0-0.6,0-1.3,0-2.1
			v-16.2c0-0.8,0-1.5,0-2.1c0-0.6-0.1-1.2-0.2-1.6c-0.1-0.5-0.3-0.8-0.6-1.1c-0.3-0.2-0.7-0.4-1.2-0.4v-0.5h10.8
			c1.8,0,3.4,0.3,4.7,0.9c1.3,0.6,2.3,1.4,3.1,2.3c0.8,0.9,1.2,2,1.4,3.2c0.2,1.2,0.2,2.3-0.2,3.5c-0.3,1.1-0.9,2.2-1.8,3.3
			c-0.9,1-2,1.9-3.4,2.5l4.3,6.3l0.1,0.2l2.5,3.6c0.4,0.5,0.8,0.9,1.2,1.1c0.4,0.3,0.9,0.4,1.4,0.4v0.5h-8.9v-0.5
			c0.6,0,0.9-0.2,0.9-0.6c0-0.4-0.2-0.8-0.6-1.4l-5.7-8.4l-3.1,0.4v4.8c0,0.8,0,1.5,0,2.1c0,0.6,0.1,1.2,0.2,1.6
			c0.1,0.5,0.3,0.8,0.6,1.1c0.3,0.3,0.7,0.4,1.2,0.4v0.5H607.1z M613.9,555.3l4-0.5c1.5-0.2,2.6-0.7,3.3-1.5
			c0.8-0.8,1.1-1.7,1.1-2.6c0-0.9-0.4-1.7-1.1-2.5c-0.7-0.7-1.9-1.1-3.4-1.1h-4V555.3z"/>
		<path class="st0" d="M632.4,570.3v-0.5c0.5,0,0.9-0.1,1.2-0.4c0.3-0.3,0.5-0.6,0.6-1.1c0.1-0.5,0.2-1,0.2-1.6c0-0.6,0-1.3,0-2.1
			v-16.2c0-0.8,0-1.5,0-2.1c0-0.6-0.1-1.2-0.2-1.6c-0.1-0.5-0.3-0.8-0.6-1.1c-0.3-0.2-0.7-0.4-1.2-0.4v-0.5h8.9v0.5
			c-0.5,0-0.9,0.1-1.2,0.4c-0.3,0.3-0.5,0.6-0.6,1.1c-0.1,0.5-0.2,1-0.2,1.6c0,0.6,0,1.3,0,2.1v16.2c0,0.8,0,1.5,0,2.1
			c0,0.6,0.1,1.2,0.2,1.6c0.1,0.5,0.3,0.8,0.6,1.1c0.3,0.3,0.7,0.4,1.2,0.4v0.5H632.4z"/>
		<path class="st0" d="M672.5,556.5c0,2.4-0.4,4.5-1.2,6.3c-0.8,1.8-1.9,3.3-3.2,4.5c-1.3,1.2-2.8,2.1-4.6,2.7
			c-1.7,0.6-3.4,0.9-5.2,0.9c-1.8,0-3.5-0.3-5.3-0.9c-1.7-0.6-3.2-1.5-4.6-2.7c-1.3-1.2-2.4-2.7-3.2-4.5c-0.8-1.8-1.2-3.9-1.2-6.3
			c0-2.4,0.4-4.5,1.2-6.4c0.8-1.8,1.9-3.3,3.2-4.5c1.3-1.2,2.9-2.1,4.6-2.7c1.7-0.6,3.5-0.9,5.3-0.9c1.8,0,3.5,0.3,5.2,0.9
			c1.7,0.6,3.2,1.5,4.6,2.7c1.3,1.2,2.4,2.7,3.2,4.5C672.1,551.9,672.5,554.1,672.5,556.5z M667.9,556.5c0-1.6-0.3-3.1-0.8-4.3
			c-0.6-1.2-1.3-2.2-2.2-3c-0.9-0.8-1.9-1.4-3.1-1.8c-1.2-0.4-2.3-0.6-3.5-0.6c-1.2,0-2.4,0.2-3.5,0.6c-1.1,0.4-2.2,1-3.1,1.8
			c-0.9,0.8-1.6,1.8-2.2,3c-0.6,1.2-0.8,2.6-0.8,4.3c0,1.6,0.3,3,0.8,4.2c0.6,1.2,1.3,2.2,2.2,3c0.9,0.8,1.9,1.4,3.1,1.8
			c1.1,0.4,2.3,0.6,3.5,0.6c1.2,0,2.4-0.2,3.5-0.6c1.2-0.4,2.2-1,3.1-1.8c0.9-0.8,1.6-1.8,2.2-3
			C667.6,559.5,667.9,558.1,667.9,556.5z M658.1,560.8c-0.1-0.6-0.2-1.1-0.5-1.6c-0.2-0.5-0.5-1-0.8-1.3c-0.3-0.4-0.7-0.7-1.2-0.9
			c-0.4-0.2-0.9-0.4-1.4-0.4v-0.6c0.5,0,1-0.1,1.4-0.4c0.4-0.2,0.8-0.5,1.2-0.9c0.3-0.4,0.6-0.8,0.8-1.3c0.2-0.5,0.4-1,0.5-1.6h0.5
			c0.1,0.6,0.2,1.1,0.5,1.6c0.2,0.5,0.5,1,0.9,1.3s0.7,0.7,1.2,0.9c0.4,0.2,0.9,0.4,1.4,0.4v0.6c-0.5,0-1,0.1-1.4,0.4
			c-0.4,0.2-0.8,0.5-1.2,0.9c-0.3,0.4-0.6,0.8-0.9,1.3c-0.2,0.5-0.4,1-0.5,1.6H658.1z"/>
	</g>
	<defs>
		<filter id="Adobe_OpacityMaskFilter" filterUnits="userSpaceOnUse" x="89.6" y="101.7" width="945.8" height="501.8">
			<feColorMatrix  type="matrix" values="1 0 0 0 0  0 1 0 0 0  0 0 1 0 0  0 0 0 1 0"/>
		</filter>
	</defs>
	
		<mask maskUnits="userSpaceOnUse" x="89.6" y="101.7" width="945.8" height="501.8" id="custom_00000070110547602450957360000011110212846361459861_">
		
			<rect id="bg_00000077320709972564804760000002471179763959004057_" x="279.6" y="101.7" class="st1" width="501.8" height="501.8"/>
	</mask>
	<g class="st2">
		<g id="g15" transform="matrix(1.3333333,0,0,-1.3333333,0,682.66667)">
			<g id="g17">
				<g>
					<defs>
						<rect id="SVGID_1_" x="-51" y="-3.3" width="945.8" height="501.8"/>
					</defs>
					<clipPath id="SVGID_00000131367722505298883380000005277156099331547547_">
						<use xlink:href="#SVGID_1_"  style="overflow:visible;"/>
					</clipPath>
				</g>
			</g>
		</g>
	</g>
	<g id="g19">
		<g id="path25">
			<path class="st0" d="M188.3,600.6H97c-2.5,0-4.5-2-4.5-4.5V443.9c0-2.5,2-4.5,4.5-4.5h91.3c2.5,0,4.5,2,4.5,4.5v152.2
				C192.8,598.6,190.8,600.6,188.3,600.6z M101.5,591.6h82.3V448.4h-82.3V591.6z"/>
		</g>
		<g id="g27" transform="translate(69.6265,116.2197)">
			<g id="path29">
				<path class="st0" d="M73,393c-10.9,0-19.7-8.8-19.7-19.7s8.8-19.7,19.7-19.7c10.9,0,19.7,8.8,19.7,19.7S83.9,393,73,393z
					 M73,362.6c-5.9,0-10.7,4.8-10.7,10.7S67.1,384,73,384c5.9,0,10.7-4.8,10.7-10.7S78.9,362.6,73,362.6z"/>
			</g>
		</g>
		<g id="g31" transform="translate(69.6265,54.0952)">
			<g id="path33">
				<path class="st0" d="M73,516c-10.9,0-19.7-8.8-19.7-19.7c0-10.9,8.8-19.7,19.7-19.7c10.9,0,19.7,8.8,19.7,19.7
					C92.7,507.2,83.9,516,73,516z M73,485.6c-5.9,0-10.7,4.8-10.7,10.7c0,5.9,4.8,10.7,10.7,10.7c5.9,0,10.7-4.8,10.7-10.7
					C83.7,490.4,78.9,485.6,73,485.6z"/>
			</g>
		</g>
		<g id="path35">
			<path class="st0" d="M1028,600.6h-91.3c-2.5,0-4.5-2-4.5-4.5V443.9c0-2.5,2-4.5,4.5-4.5h91.3c2.5,0,4.5,2,4.5,4.5v152.2
				C1032.5,598.6,1030.5,600.6,1028,600.6z M941.2,591.6h82.3V448.4h-82.3V591.6z"/>
		</g>
		<g id="g37" transform="translate(473.4355,116.2197)">
			<g id="path39">
				<path class="st0" d="M508.9,393c-10.9,0-19.7-8.8-19.7-19.7s8.8-19.7,19.7-19.7c10.9,0,19.7,8.8,19.7,19.7S519.8,393,508.9,393z
					 M508.9,362.6c-5.9,0-10.7,4.8-10.7,10.7S503,384,508.9,384s10.7-4.8,10.7-10.7S514.8,362.6,508.9,362.6z"/>
			</g>
		</g>
		<g id="g41" transform="translate(473.4355,54.0952)">
			<g id="path43">
				<path class="st0" d="M508.9,516c-10.9,0-19.7-8.8-19.7-19.7c0-10.9,8.8-19.7,19.7-19.7c10.9,0,19.7,8.8,19.7,19.7
					C528.7,507.2,519.8,516,508.9,516z M508.9,485.6c-5.9,0-10.7,4.8-10.7,10.7c0,5.9,4.8,10.7,10.7,10.7s10.7-4.8,10.7-10.7
					C519.7,490.4,514.8,485.6,508.9,485.6z"/>
			</g>
		</g>
		<g id="g45" transform="translate(114.3501,504.5)">
			<g id="path47">
				<path class="st0" d="M449-330.1H-17.4c-2.5,0-4.5-2-4.5-4.5v-60.9c0-2.5,2-4.5,4.5-4.5h294.7c2.5,0,4.5,2,4.5,4.5
					s-2,4.5-4.5,4.5H-12.9v51.9H449c2.5,0,4.5,2,4.5,4.5S451.5-330.1,449-330.1z"/>
			</g>
		</g>
		<g id="g49" transform="translate(147.0298,504.5)">
			<g id="path51">
				<path class="st0" d="M881-330.1H448.3c-2.5,0-4.5-2-4.5-4.5s2-4.5,4.5-4.5h428.2V-391H276.7c-2.5,0-4.5-2-4.5-4.5s2-4.5,4.5-4.5
					H881c2.5,0,4.5,2,4.5,4.5v60.9C885.5-332.1,883.5-330.1,881-330.1z"/>
			</g>
		</g>
		<g id="g53" transform="translate(196.9702,100.6802)">
			<g id="path55">
				<path class="st0" d="M739.7,499.9H-8.7c-2.5,0-4.5-2-4.5-4.5v-91.3c0-2.5,2-4.5,4.5-4.5h252.3c2.5,0,4.5,2,4.5,4.5
					s-2,4.5-4.5,4.5H-4.2v82.3h739.4v-82.3H275.7c-2.5,0-4.5-2-4.5-4.5s2-4.5,4.5-4.5h464.1c2.5,0,4.5,2,4.5,4.5v91.3
					C744.2,497.9,742.2,499.9,739.7,499.9z"/>
			</g>
		</g>
		<g id="g105" transform="translate(69.6265,473.4355)">
			<g id="path107">
				<path class="st0" d="M897.5-329.5H88.2c-2.5,0-4.5-2-4.5-4.5s2-4.5,4.5-4.5h809.3c2.5,0,4.5,2,4.5,4.5S900-329.5,897.5-329.5z"
					/>
			</g>
		</g>
		<g id="path109">
			<path class="st0" d="M165.5,448.4h-45.7c-2.5,0-4.5-2-4.5-4.5V169.9c0-2.5,2-4.5,4.5-4.5h45.7c2.5,0,4.5,2,4.5,4.5v274.1
				C170,446.4,167.9,448.4,165.5,448.4z M124.3,439.4H161V174.4h-36.7V439.4z"/>
		</g>
		<g id="g111" transform="translate(30.7988,424.8096)">
			<g id="path113">
				<path class="st0" d="M134.7,6.5c-0.9,0-1.9-0.3-2.7-0.9L86.3-28.5c-1.1-0.8-1.8-2.2-1.8-3.6s0.7-2.8,1.8-3.6l40.9-30.8
					L86.3-97.1c-1.1-0.8-1.8-2.2-1.8-3.6s0.7-2.8,1.8-3.6l40.9-30.6l-40.9-30.6c-1.1-0.8-1.8-2.2-1.8-3.6c0-1.4,0.7-2.7,1.8-3.6
					l40.9-30.7l-40.9-30.6c-2-1.5-2.4-4.3-0.9-6.3c1.5-2,4.3-2.4,6.3-0.9l45.7,34.2c1.1,0.8,1.8,2.2,1.8,3.6s-0.7,2.8-1.8,3.6
					l-40.9,30.7l40.9,30.6c1.1,0.8,1.8,2.2,1.8,3.6s-0.7,2.8-1.8,3.6l-40.9,30.6l40.9,30.6c1.1,0.8,1.8,2.2,1.8,3.6
					s-0.7,2.7-1.8,3.6L96.5-32.1l40.9,30.5c2,1.5,2.4,4.3,0.9,6.3C137.4,5.9,136,6.5,134.7,6.5z"/>
			</g>
		</g>
		<g id="path115">
			<path class="st0" d="M1005.2,448.4h-45.7c-2.5,0-4.5-2-4.5-4.5V169.9c0-2.5,2-4.5,4.5-4.5h45.7c2.5,0,4.5,2,4.5,4.5v274.1
				C1009.7,446.4,1007.7,448.4,1005.2,448.4z M964,439.4h36.7V174.4H964V439.4z"/>
		</g>
		<g id="g117" transform="translate(481.2012,424.8096)">
			<g id="path119">
				<path class="st0" d="M478.3,6.5c-1.4,0-2.7-0.6-3.6-1.8c-1.5-2-1.1-4.8,0.9-6.3l40.9-30.5l-40.9-30.8c-1.1-0.9-1.8-2.2-1.8-3.6
					s0.7-2.7,1.8-3.6l40.9-30.6l-40.9-30.6c-1.1-0.8-1.8-2.2-1.8-3.6s0.7-2.8,1.8-3.6l40.9-30.6l-40.9-30.7
					c-1.1-0.9-1.8-2.2-1.8-3.6s0.7-2.7,1.8-3.6l45.7-34.2c2-1.5,4.8-1.1,6.3,0.9c1.5,2,1.1,4.8-0.9,6.3l-40.9,30.6l40.9,30.7
					c1.1,0.9,1.8,2.2,1.8,3.6c0,1.4-0.7,2.7-1.8,3.6L485.8-135l40.9,30.6c1.1,0.8,1.8,2.2,1.8,3.6s-0.7,2.8-1.8,3.6l-40.9,30.6
					l40.9,30.8c1.1,0.9,1.8,2.2,1.8,3.6s-0.7,2.7-1.8,3.6L481,5.6C480.2,6.2,479.3,6.5,478.3,6.5z"/>
			</g>
		</g>
	</g>
	<g>
		<g id="g57" transform="translate(271.5312,364.7178)">
			<g id="path59">
				<path class="st0" d="M306.2-114.2h-30.4c-2.5,0-4.5-2-4.5-4.5v-30.4c0-10.9,8.8-19.7,19.7-19.7c10.9,0,19.7,8.8,19.7,19.7v30.4
					C310.7-116.2,308.7-114.2,306.2-114.2z M280.2-123.2h21.4v-25.9c0-5.9-4.8-10.7-10.7-10.7s-10.7,4.8-10.7,10.7V-123.2z"/>
			</g>
		</g>
		<g id="g61" transform="translate(232.7031,364.7178)">
			<g id="path63">
				<path class="st0" d="M352.6-114.2H307c-2.5,0-4.5-2-4.5-4.5s2-4.5,4.5-4.5h45.7c2.5,0,4.5,2,4.5,4.5S355.1-114.2,352.6-114.2z"
					/>
			</g>
		</g>
		<g id="g65" transform="translate(256,411.311)">
			<g id="path67">
				<path class="st0" d="M306.5-206.5c-2.5,0-4.5-2-4.5-4.5v-30.4c0-2.5,2-4.5,4.5-4.5s4.5,2,4.5,4.5v30.4
					C311-208.5,309-206.5,306.5-206.5z"/>
			</g>
		</g>
		<g id="g69" transform="translate(170.3779,375.6045)">
			<g id="path71">
				<path class="st0" d="M281.9-120.5c-1.6,0-3.1-0.8-3.9-2.3l-15.2-26.4c-2.6-4.6-3.3-9.9-2-15c1.4-5.1,4.6-9.3,9.2-12
					c4.6-2.6,9.9-3.3,15-2c5.1,1.4,9.3,4.6,12,9.2l15.2,26.4c0.6,1,0.8,2.3,0.4,3.4s-1.1,2.1-2.1,2.7l-26.4,15.2
					C283.4-120.7,282.6-120.5,281.9-120.5z M279.8-169.7c-1.9,0-3.7,0.5-5.3,1.4c-2.5,1.4-4.3,3.7-5,6.5c-0.7,2.8-0.4,5.7,1.1,8.1
					l13,22.5l18.6-10.7l-13-22.5c-1.4-2.5-3.7-4.3-6.5-5C281.7-169.6,280.7-169.7,279.8-169.7z"/>
			</g>
		</g>
		<g id="g73" transform="translate(136.752,356.1909)">
			<g id="path75">
				<path class="st0" d="M308.9-97.3c-1.6,0-3.1-0.8-3.9-2.3c-1.2-2.2-0.5-4.9,1.6-6.1l39.5-22.8c2.2-1.2,4.9-0.5,6.1,1.6
					c1.2,2.2,0.5,4.9-1.6,6.1l-39.5,22.8C310.4-97.5,309.7-97.3,308.9-97.3z"/>
			</g>
		</g>
		<g id="g77" transform="translate(133.6309,408.1899)">
			<g id="path79">
				<path class="st0" d="M308.9-200.3c-2.5,0-4.5-2-4.5-4.5v-33.5c0-2.5,2-4.5,4.5-4.5s4.5,2,4.5,4.5v33.5
					C313.4-202.3,311.4-200.3,308.9-200.3z"/>
			</g>
		</g>
		<g id="g69_00000032634238246116401000000010048801212843453825_" transform="translate(170.3779,375.6045)">
			<g id="path71_00000168831722684990133150000012547855624091981196_">
				<path class="st0" d="M82.9-120.5c-1.6,0-3.1-0.8-3.9-2.3l-15.2-26.4c-2.6-4.6-3.3-9.9-2-15c1.4-5.1,4.6-9.3,9.2-12
					c4.6-2.6,9.9-3.3,15-2c5.1,1.4,9.3,4.6,12,9.2l15.2,26.4c0.6,1,0.8,2.3,0.4,3.4s-1.1,2.1-2.1,2.7l-26.4,15.2
					C84.4-120.7,83.6-120.5,82.9-120.5z M80.8-169.7c-1.9,0-3.7,0.5-5.3,1.4c-2.5,1.4-4.3,3.7-5,6.5c-0.7,2.8-0.4,5.7,1.1,8.1
					l13,22.5l18.6-10.7l-13-22.5c-1.4-2.5-3.7-4.3-6.5-5C82.7-169.6,81.7-169.7,80.8-169.7z"/>
			</g>
		</g>
		<g id="g73_00000138566042894383480220000004477678897009054875_" transform="translate(136.752,356.1909)">
			<g id="path75_00000153702932284872228200000002232963158449163920_">
				<path class="st0" d="M109.9-97.3c-1.6,0-3.1-0.8-3.9-2.3c-1.2-2.2-0.5-4.9,1.6-6.1l39.5-22.8c2.2-1.2,4.9-0.5,6.1,1.6
					c1.2,2.2,0.5,4.9-1.6,6.1l-39.5,22.8C111.4-97.5,110.7-97.3,109.9-97.3z"/>
			</g>
		</g>
		<g id="g77_00000127744862551582257450000011551432447499494280_" transform="translate(133.6309,408.1899)">
			<g id="path79_00000026871780973785441290000015511402558239583376_">
				<path class="st0" d="M109.9-200.3c-2.5,0-4.5-2-4.5-4.5v-33.5c0-2.5,2-4.5,4.5-4.5s4.5,2,4.5,4.5v33.5
					C114.4-202.3,112.4-200.3,109.9-200.3z"/>
			</g>
		</g>
		<g id="g81" transform="translate(341.6221,375.6045)">
			<g id="path83">
				<path class="st0" d="M331.2-120.5c-0.8,0-1.6-0.2-2.2-0.6l-26.4-15.2c-2.2-1.2-2.9-4-1.6-6.1l15.2-26.4c2.6-4.6,6.9-7.8,12-9.2
					c5.1-1.4,10.4-0.7,15,2c4.6,2.6,7.8,6.9,9.2,12c1.4,5.1,0.7,10.4-2,15L335-122.8c-0.6,1-1.6,1.8-2.7,2.1
					C331.9-120.6,331.5-120.5,331.2-120.5z M310.9-141.9l18.6,10.7l13-22.5c1.4-2.5,1.8-5.4,1.1-8.1c-0.7-2.8-2.5-5.1-5-6.5
					c-2.5-1.4-5.4-1.8-8.1-1.1s-5.1,2.5-6.5,5L310.9-141.9z"/>
			</g>
		</g>
		<g id="g85" transform="translate(375.248,356.1909)">
			<g id="path87">
				<path class="st0" d="M304.1-97.3c-0.8,0-1.5-0.2-2.2-0.6l-39.5-22.8c-2.2-1.2-2.9-4-1.6-6.1c1.2-2.2,4-2.9,6.1-1.6l39.5,22.8
					c2.2,1.2,2.9,4,1.6,6.1C307.2-98.1,305.7-97.3,304.1-97.3z"/>
			</g>
		</g>
		<g id="g89" transform="translate(378.3691,408.1899)">
			<g id="path91">
				<path class="st0" d="M304.1-200.3c-2.5,0-4.5-2-4.5-4.5v-33.5c0-2.5,2-4.5,4.5-4.5s4.5,2,4.5,4.5v33.5
					C308.6-202.3,306.5-200.3,304.1-200.3z"/>
			</g>
		</g>
		<g id="g81_00000083051390575784556210000000011324821534107793_" transform="translate(341.6221,375.6045)">
			<g id="path83_00000181791444721250909670000005921748276375421842_">
				<path class="st0" d="M523.2-120.5c-0.8,0-1.6-0.2-2.2-0.6l-26.4-15.2c-2.2-1.2-2.9-4-1.6-6.1l15.2-26.4c2.6-4.6,6.9-7.8,12-9.2
					c5.1-1.4,10.4-0.7,15,2c4.6,2.6,7.8,6.9,9.2,12c1.4,5.1,0.7,10.4-2,15L527-122.8c-0.6,1-1.6,1.8-2.7,2.1
					C523.9-120.6,523.5-120.5,523.2-120.5z M502.9-141.9l18.6,10.7l13-22.5c1.4-2.5,1.8-5.4,1.1-8.1c-0.7-2.8-2.5-5.1-5-6.5
					c-2.5-1.4-5.4-1.8-8.1-1.1c-2.8,0.7-5.1,2.5-6.5,5L502.9-141.9z"/>
			</g>
		</g>
		<g id="g85_00000105388771850421445420000015898787578768417471_" transform="translate(375.248,356.1909)">
			<g id="path87_00000016791083552492969760000014758784789298555275_">
				<path class="st0" d="M496.1-97.3c-0.8,0-1.5-0.2-2.2-0.6l-39.5-22.8c-2.2-1.2-2.9-4-1.6-6.1c1.2-2.2,4-2.9,6.1-1.6l39.5,22.8
					c2.2,1.2,2.9,4,1.6,6.1C499.2-98.1,497.7-97.3,496.1-97.3z"/>
			</g>
		</g>
		<g id="g89_00000173124828703106711360000002317423252521191302_" transform="translate(378.3691,408.1899)">
			<g id="path91_00000080164226527757980260000013532753128425389225_">
				<path class="st0" d="M496.1-200.3c-2.5,0-4.5-2-4.5-4.5v-33.5c0-2.5,2-4.5,4.5-4.5s4.5,2,4.5,4.5v33.5
					C500.6-202.3,498.5-200.3,496.1-200.3z"/>
			</g>
		</g>
	</g>
	<g>
		<g>
			<path class="st0" d="M578.7,375c-1,0-2-0.1-2.9-0.3c-3.7-0.8-6.8-2.9-8.9-6.1l-1.6-2.5c-4.2-6.5-2.4-15.3,4.1-19.5l10.8-7
				c6.5-4.2,15.3-2.4,19.5,4.1l1.6,2.5c2.1,3.2,2.8,6.9,2,10.6c-0.8,3.7-2.9,6.8-6.1,8.9l-10.8,7C584.1,374.2,581.4,375,578.7,375z
				 M587.9,345.3c-1.1,0-2.3,0.3-3.3,1l-10.8,7c-2.8,1.8-3.6,5.6-1.8,8.4l1.6,2.5c0.9,1.4,2.3,2.3,3.8,2.6c1.6,0.3,3.2,0,4.6-0.9
				l10.8-7l0,0c1.4-0.9,2.3-2.3,2.6-3.8s0-3.2-0.9-4.6l-1.6-2.5C591.8,346.3,589.9,345.3,587.9,345.3z"/>
		</g>
		<g id="g93" transform="translate(256,224.9292)">
			<g id="path95">
				<path class="st0" d="M269.4,284.4c-1.2,0-2.3-0.4-3.2-1.3c-1.8-1.8-1.8-4.6,0-6.4l29.1-29.1v-89.5c0-2.5,2-4.5,4.5-4.5
					s4.5,2,4.5,4.5v91.4c0,1.2-0.5,2.3-1.3,3.2l-30.4,30.4C271.7,284,270.6,284.4,269.4,284.4z"/>
			</g>
		</g>
		<g id="g97" transform="translate(287.062,100.6279)">
			<g id="path99">
				<path class="st0" d="M299.2,408.7c-1.2,0-2.3-0.4-3.2-1.3l-30.4-30.4c-1.8-1.8-1.8-4.6,0-6.4c1.8-1.8,4.6-1.8,6.4,0l30.4,30.4
					c1.8,1.8,1.8,4.6,0,6.4C301.5,408.3,300.4,408.7,299.2,408.7z"/>
			</g>
		</g>
		<g id="g101" transform="translate(240.4687,209.4067)">
			<g id="path103">
				<path class="st0" d="M300.2,193.3c-1.2,0-2.3-0.4-3.2-1.3c-1.8-1.8-1.8-4.6,0-6.4l30.4-30.4c1.8-1.8,4.6-1.8,6.4,0
					c1.8,1.8,1.8,4.6,0,6.4L303.4,192C302.5,192.9,301.3,193.3,300.2,193.3z"/>
			</g>
		</g>
	</g>
</g>
</svg>
